<?xml version="1.0" standalone="no"?>
<!DOCTYPE svg PUBLIC "-//W3C//DTD SVG 20010904//EN"
 "http://www.w3.org/TR/2001/REC-SVG-20010904/DTD/svg10.dtd">
<svg version="1.0" xmlns="http://www.w3.org/2000/svg"
 width="442.000000pt" height="354.000000pt" viewBox="0 0 442.000000 354.000000"
 preserveAspectRatio="xMidYMid meet">

<g transform="translate(0.000000,354.000000) scale(0.100000,-0.100000)"
fill="#000000" stroke="none">
<path d="M2450 2919 c-211 -27 -424 -105 -602 -221 -158 -102 -360 -305 -468
-470 -58 -88 -120 -220 -120 -257 0 -40 -19 -30 -59 32 -49 76 -136 168 -211
224 -175 131 -457 201 -607 150 -79 -28 -82 -38 -21 -83 161 -120 333 -474
387 -794 65 -385 68 -943 6 -1119 -12 -36 -12 -43 0 -47 28 -11 213 48 331
106 147 72 184 109 267 267 60 116 90 215 102 336 l7 68 57 -54 c78 -72 149
-118 276 -177 142 -67 259 -107 363 -125 100 -18 395 -20 492 -4 36 6 80 12
99 15 19 2 73 16 120 31 246 77 449 232 615 471 40 58 96 163 96 181 0 16 8
14 40 -9 70 -50 178 -91 252 -97 99 -7 149 8 209 64 62 58 89 127 96 244 9
137 -36 260 -130 358 -51 52 -133 101 -172 101 -47 1 -49 17 -5 56 133 121
144 388 22 549 -55 73 -115 100 -222 100 -78 0 -90 -3 -148 -34 -71 -38 -115
-87 -159 -174 l-28 -57 -45 61 c-73 101 -140 154 -274 219 -139 67 -172 76
-327 90 -128 11 -147 11 -239 -1z m395 -44 c89 -25 273 -122 329 -175 27 -25
72 -76 101 -114 l52 -68 -23 -82 c-41 -146 -76 -386 -56 -386 11 0 17 22 27
95 10 70 72 319 95 383 45 120 93 184 171 227 46 25 65 29 129 30 62 0 83 -4
120 -25 88 -50 136 -145 147 -291 8 -114 -20 -200 -85 -262 -66 -61 -120 -87
-182 -87 -27 0 -50 -4 -50 -10 0 -5 2 -10 4 -10 2 0 31 -6 63 -14 32 -8 78
-17 103 -20 114 -15 143 -25 205 -70 55 -40 84 -78 114 -149 21 -52 26 -78 26
-157 0 -52 -6 -113 -12 -135 -19 -61 -62 -121 -106 -145 -34 -20 -50 -22 -127
-18 -74 3 -98 9 -154 37 -87 42 -178 112 -311 236 -60 55 -113 102 -119 104
-36 14 125 -181 197 -238 70 -56 70 -55 -15 -197 -71 -121 -186 -254 -286
-335 -68 -55 -221 -138 -295 -160 -218 -66 -349 -83 -567 -75 -132 5 -184 11
-260 31 -209 57 -446 181 -565 297 -38 37 -73 68 -77 68 -4 0 -8 -28 -8 -62
-1 -137 -40 -272 -118 -414 -55 -100 -117 -162 -210 -212 -74 -39 -319 -128
-329 -119 -2 2 1 17 7 33 39 102 59 451 41 704 -30 412 -79 632 -196 876 -79
166 -163 283 -248 345 l-37 27 47 16 c104 35 304 5 458 -69 142 -68 288 -208
375 -359 17 -31 35 -54 40 -51 4 3 11 29 15 58 22 168 183 403 428 624 104 94
174 141 312 208 124 60 206 88 333 116 112 24 401 21 497 -6z"/>
<path d="M2650 2674 c-48 -9 -145 -47 -183 -72 -104 -69 -162 -214 -136 -339
15 -74 54 -115 126 -132 76 -18 113 2 178 98 61 90 91 107 210 123 71 9 94 16
117 37 31 28 46 87 34 135 -10 42 -66 96 -125 122 -54 24 -165 38 -221 28z
m213 -53 c94 -46 128 -104 104 -178 -11 -34 -17 -39 -62 -50 -48 -11 -175 -31
-175 -27 0 1 7 18 15 37 8 20 15 51 15 70 0 46 -51 123 -95 144 -49 23 -28 32
70 30 61 -2 91 -8 128 -26z m-283 -76 c23 -24 23 -26 7 -60 -21 -44 -56 -47
-86 -9 -25 32 -26 51 -4 76 23 25 55 23 83 -7z m-147 -169 c35 -53 110 -79
189 -65 25 4 35 2 31 -5 -30 -52 -87 -128 -105 -140 -47 -33 -139 -10 -175 42
-26 38 -25 170 1 236 l20 48 11 -45 c6 -25 19 -57 28 -71z"/>
<path d="M1838 1763 c-9 -10 -35 -54 -59 -98 -37 -68 -43 -88 -44 -138 0 -53
3 -61 30 -84 27 -24 34 -25 110 -21 88 6 125 21 230 91 90 61 278 203 300 227
44 49 -2 23 -136 -78 -258 -192 -313 -221 -416 -222 -108 0 -126 72 -52 215
23 44 47 87 55 96 8 8 14 19 14 22 0 13 -17 7 -32 -10z"/>
<path d="M2710 1399 c73 -65 189 -137 275 -171 95 -37 242 -51 288 -27 23 13
18 14 -66 15 -134 1 -259 49 -445 170 -45 30 -86 54 -90 54 -4 -1 13 -19 38
-41z"/>
</g>
</svg>
